<?xml version="1.0" encoding="utf-8" standalone="no"?>
<!DOCTYPE svg PUBLIC "-//W3C//DTD SVG 1.1//EN"
  "http://www.w3.org/Graphics/SVG/1.1/DTD/svg11.dtd">
<svg xmlns:xlink="http://www.w3.org/1999/xlink" width="488.592pt" height="324.480156pt" viewBox="0 0 488.592 324.480156" xmlns="http://www.w3.org/2000/svg" version="1.1">
 <metadata>
  <rdf:RDF xmlns:dc="http://purl.org/dc/elements/1.1/" xmlns:cc="http://creativecommons.org/ns#" xmlns:rdf="http://www.w3.org/1999/02/22-rdf-syntax-ns#">
   <cc:Work>
    <dc:type rdf:resource="http://purl.org/dc/dcmitype/StillImage"/>
    <dc:date>2026-09-17T08:36:28.035843</dc:date>
    <dc:format>image/svg+xml</dc:format>
    <dc:creator>
     <cc:Agent>
      <dc:title>Matplotlib v3.11.1, https://matplotlib.org/</dc:title>
     </cc:Agent>
    </dc:creator>
   </cc:Work>
  </rdf:RDF>
 </metadata>
 <defs>
  <style type="text/css">*{stroke-linejoin: round; stroke-linecap: butt}</style>
 </defs>
 <g id="figure_1">
  <g id="patch_1">
   <path d="M 0 324.480156 
L 488.592 324.480156 
L 488.592 0 
L 0 0 
z
" style="fill: #fcfcfb"/>
  </g>
  <g id="axes_1">
   <g id="patch_2">
    <path d="M 68.472 280.582281 
L 481.392 280.582281 
L 481.392 25.558281 
L 68.472 25.558281 
z
" style="fill: #fcfcfb"/>
   </g>
   <g id="matplotlib.axis_1">
    <g id="xtick_1">
     <g id="line2d_1">
      <path d="M 87.241091 280.582281 
L 87.241091 25.558281 
" clip-path="url(#p4fc2dfe521)" style="fill: none; stroke: #e6e5e1; stroke-opacity: 0.9; stroke-width: 0.8; stroke-linecap: square"/>
     </g>
     <g id="line2d_2">
      <defs>
       <path id="m5fdb28a43b" d="M 0 0 
L 0 3 
" style="stroke: #52514e; stroke-width: 0.8"/>
      </defs>
      <g>
       <use xlink:href="#m5fdb28a43b" x="87.241091" y="280.582281" style="fill: #52514e; stroke: #52514e; stroke-width: 0.8"/>
      </g>
     </g>
     <g id="text_1">
      <!-- 64 -->
      <g style="fill: #52514e" transform="translate(81.514841 293.920172) scale(0.09 -0.09)">
       <defs>
        <path id="DejaVuSans-19" d="M 2113 2584 
Q 1688 2584 1439 2293 
Q 1191 2003 1191 1497 
Q 1191 994 1439 701 
Q 1688 409 2113 409 
Q 2538 409 2786 701 
Q 3034 994 3034 1497 
Q 3034 2003 2786 2293 
Q 2538 2584 2113 2584 
z
M 3366 4563 
L 3366 3988 
Q 3128 4100 2886 4159 
Q 2644 4219 2406 4219 
Q 1781 4219 1451 3797 
Q 1122 3375 1075 2522 
Q 1259 2794 1537 2939 
Q 1816 3084 2150 3084 
Q 2853 3084 3261 2657 
Q 3669 2231 3669 1497 
Q 3669 778 3244 343 
Q 2819 -91 2113 -91 
Q 1303 -91 875 529 
Q 447 1150 447 2328 
Q 447 3434 972 4092 
Q 1497 4750 2381 4750 
Q 2619 4750 2861 4703 
Q 3103 4656 3366 4563 
z
" transform="scale(0.015625)"/>
        <path id="DejaVuSans-17" d="M 2419 4116 
L 825 1625 
L 2419 1625 
L 2419 4116 
z
M 2253 4666 
L 3047 4666 
L 3047 1625 
L 3713 1625 
L 3713 1100 
L 3047 1100 
L 3047 0 
L 2419 0 
L 2419 1100 
L 313 1100 
L 313 1709 
L 2253 4666 
z
" transform="scale(0.015625)"/>
       </defs>
       <use xlink:href="#DejaVuSans-19"/>
       <use xlink:href="#DejaVuSans-17" transform="translate(63.625 0)"/>
      </g>
     </g>
    </g>
    <g id="xtick_2">
     <g id="line2d_3">
      <path d="M 122.958857 280.582281 
L 122.958857 25.558281 
" clip-path="url(#p4fc2dfe521)" style="fill: none; stroke: #e6e5e1; stroke-opacity: 0.9; stroke-width: 0.8; stroke-linecap: square"/>
     </g>
     <g id="line2d_4">
      <g>
       <use xlink:href="#m5fdb28a43b" x="122.958857" y="280.582281" style="fill: #52514e; stroke: #52514e; stroke-width: 0.8"/>
      </g>
     </g>
     <g id="text_2">
      <!-- 128 -->
      <g style="fill: #52514e" transform="translate(114.369482 293.920172) scale(0.09 -0.09)">
       <defs>
        <path id="DejaVuSans-14" d="M 794 531 
L 1825 531 
L 1825 4091 
L 703 3866 
L 703 4441 
L 1819 4666 
L 2450 4666 
L 2450 531 
L 3481 531 
L 3481 0 
L 794 0 
L 794 531 
z
" transform="scale(0.015625)"/>
        <path id="DejaVuSans-15" d="M 1228 531 
L 3431 531 
L 3431 0 
L 469 0 
L 469 531 
Q 828 903 1448 1529 
Q 2069 2156 2228 2338 
Q 2531 2678 2651 2914 
Q 2772 3150 2772 3378 
Q 2772 3750 2511 3984 
Q 2250 4219 1831 4219 
Q 1534 4219 1204 4116 
Q 875 4013 500 3803 
L 500 4441 
Q 881 4594 1212 4672 
Q 1544 4750 1819 4750 
Q 2544 4750 2975 4387 
Q 3406 4025 3406 3419 
Q 3406 3131 3298 2873 
Q 3191 2616 2906 2266 
Q 2828 2175 2409 1742 
Q 1991 1309 1228 531 
z
" transform="scale(0.015625)"/>
        <path id="DejaVuSans-1b" d="M 2034 2216 
Q 1584 2216 1326 1975 
Q 1069 1734 1069 1313 
Q 1069 891 1326 650 
Q 1584 409 2034 409 
Q 2484 409 2743 651 
Q 3003 894 3003 1313 
Q 3003 1734 2745 1975 
Q 2488 2216 2034 2216 
z
M 1403 2484 
Q 997 2584 770 2862 
Q 544 3141 544 3541 
Q 544 4100 942 4425 
Q 1341 4750 2034 4750 
Q 2731 4750 3128 4425 
Q 3525 4100 3525 3541 
Q 3525 3141 3298 2862 
Q 3072 2584 2669 2484 
Q 3125 2378 3379 2068 
Q 3634 1759 3634 1313 
Q 3634 634 3220 271 
Q 2806 -91 2034 -91 
Q 1263 -91 848 271 
Q 434 634 434 1313 
Q 434 1759 690 2068 
Q 947 2378 1403 2484 
z
M 1172 3481 
Q 1172 3119 1398 2916 
Q 1625 2713 2034 2713 
Q 2441 2713 2670 2916 
Q 2900 3119 2900 3481 
Q 2900 3844 2670 4047 
Q 2441 4250 2034 4250 
Q 1625 4250 1398 4047 
Q 1172 3844 1172 3481 
z
" transform="scale(0.015625)"/>
       </defs>
       <use xlink:href="#DejaVuSans-14"/>
       <use xlink:href="#DejaVuSans-15" transform="translate(63.625 0)"/>
       <use xlink:href="#DejaVuSans-1b" transform="translate(127.25 0)"/>
      </g>
     </g>
    </g>
    <g id="xtick_3">
     <g id="line2d_5">
      <path d="M 158.676623 280.582281 
L 158.676623 25.558281 
" clip-path="url(#p4fc2dfe521)" style="fill: none; stroke: #e6e5e1; stroke-opacity: 0.9; stroke-width: 0.8; stroke-linecap: square"/>
     </g>
     <g id="line2d_6">
      <g>
       <use xlink:href="#m5fdb28a43b" x="158.676623" y="280.582281" style="fill: #52514e; stroke: #52514e; stroke-width: 0.8"/>
      </g>
     </g>
     <g id="text_3">
      <!-- 256 -->
      <g style="fill: #52514e" transform="translate(150.087248 293.920172) scale(0.09 -0.09)">
       <defs>
        <path id="DejaVuSans-18" d="M 691 4666 
L 3169 4666 
L 3169 4134 
L 1269 4134 
L 1269 2991 
Q 1406 3038 1543 3061 
Q 1681 3084 1819 3084 
Q 2600 3084 3056 2656 
Q 3513 2228 3513 1497 
Q 3513 744 3044 326 
Q 2575 -91 1722 -91 
Q 1428 -91 1123 -41 
Q 819 9 494 109 
L 494 744 
Q 775 591 1075 516 
Q 1375 441 1709 441 
Q 2250 441 2565 725 
Q 2881 1009 2881 1497 
Q 2881 1984 2565 2268 
Q 2250 2553 1709 2553 
Q 1456 2553 1204 2497 
Q 953 2441 691 2322 
L 691 4666 
z
" transform="scale(0.015625)"/>
       </defs>
       <use xlink:href="#DejaVuSans-15"/>
       <use xlink:href="#DejaVuSans-18" transform="translate(63.625 0)"/>
       <use xlink:href="#DejaVuSans-19" transform="translate(127.25 0)"/>
      </g>
     </g>
    </g>
    <g id="xtick_4">
     <g id="line2d_7">
      <path d="M 194.394389 280.582281 
L 194.394389 25.558281 
" clip-path="url(#p4fc2dfe521)" style="fill: none; stroke: #e6e5e1; stroke-opacity: 0.9; stroke-width: 0.8; stroke-linecap: square"/>
     </g>
     <g id="line2d_8">
      <g>
       <use xlink:href="#m5fdb28a43b" x="194.394389" y="280.582281" style="fill: #52514e; stroke: #52514e; stroke-width: 0.8"/>
      </g>
     </g>
     <g id="text_4">
      <!-- 512 -->
      <g style="fill: #52514e" transform="translate(185.805014 293.920172) scale(0.09 -0.09)">
       <use xlink:href="#DejaVuSans-18"/>
       <use xlink:href="#DejaVuSans-14" transform="translate(63.625 0)"/>
       <use xlink:href="#DejaVuSans-15" transform="translate(127.25 0)"/>
      </g>
     </g>
    </g>
    <g id="xtick_5">
     <g id="line2d_9">
      <path d="M 230.112155 280.582281 
L 230.112155 25.558281 
" clip-path="url(#p4fc2dfe521)" style="fill: none; stroke: #e6e5e1; stroke-opacity: 0.9; stroke-width: 0.8; stroke-linecap: square"/>
     </g>
     <g id="line2d_10">
      <g>
       <use xlink:href="#m5fdb28a43b" x="230.112155" y="280.582281" style="fill: #52514e; stroke: #52514e; stroke-width: 0.8"/>
      </g>
     </g>
     <g id="text_5">
      <!-- 1024 -->
      <g style="fill: #52514e" transform="translate(218.659655 293.920172) scale(0.09 -0.09)">
       <defs>
        <path id="DejaVuSans-13" d="M 2034 4250 
Q 1547 4250 1301 3770 
Q 1056 3291 1056 2328 
Q 1056 1369 1301 889 
Q 1547 409 2034 409 
Q 2525 409 2770 889 
Q 3016 1369 3016 2328 
Q 3016 3291 2770 3770 
Q 2525 4250 2034 4250 
z
M 2034 4750 
Q 2819 4750 3233 4129 
Q 3647 3509 3647 2328 
Q 3647 1150 3233 529 
Q 2819 -91 2034 -91 
Q 1250 -91 836 529 
Q 422 1150 422 2328 
Q 422 3509 836 4129 
Q 1250 4750 2034 4750 
z
" transform="scale(0.015625)"/>
       </defs>
       <use xlink:href="#DejaVuSans-14"/>
       <use xlink:href="#DejaVuSans-13" transform="translate(63.625 0)"/>
       <use xlink:href="#DejaVuSans-15" transform="translate(127.25 0)"/>
       <use xlink:href="#DejaVuSans-17" transform="translate(190.875 0)"/>
      </g>
     </g>
    </g>
    <g id="xtick_6">
     <g id="line2d_11">
      <path d="M 265.829921 280.582281 
L 265.829921 25.558281 
" clip-path="url(#p4fc2dfe521)" style="fill: none; stroke: #e6e5e1; stroke-opacity: 0.9; stroke-width: 0.8; stroke-linecap: square"/>
     </g>
     <g id="line2d_12">
      <g>
       <use xlink:href="#m5fdb28a43b" x="265.829921" y="280.582281" style="fill: #52514e; stroke: #52514e; stroke-width: 0.8"/>
      </g>
     </g>
     <g id="text_6">
      <!-- 2048 -->
      <g style="fill: #52514e" transform="translate(254.377421 293.920172) scale(0.09 -0.09)">
       <use xlink:href="#DejaVuSans-15"/>
       <use xlink:href="#DejaVuSans-13" transform="translate(63.625 0)"/>
       <use xlink:href="#DejaVuSans-17" transform="translate(127.25 0)"/>
       <use xlink:href="#DejaVuSans-1b" transform="translate(190.875 0)"/>
      </g>
     </g>
    </g>
    <g id="xtick_7">
     <g id="line2d_13">
      <path d="M 301.547687 280.582281 
L 301.547687 25.558281 
" clip-path="url(#p4fc2dfe521)" style="fill: none; stroke: #e6e5e1; stroke-opacity: 0.9; stroke-width: 0.8; stroke-linecap: square"/>
     </g>
     <g id="line2d_14">
      <g>
       <use xlink:href="#m5fdb28a43b" x="301.547687" y="280.582281" style="fill: #52514e; stroke: #52514e; stroke-width: 0.8"/>
      </g>
     </g>
     <g id="text_7">
      <!-- 4096 -->
      <g style="fill: #52514e" transform="translate(290.095187 293.920172) scale(0.09 -0.09)">
       <defs>
        <path id="DejaVuSans-1c" d="M 703 97 
L 703 672 
Q 941 559 1184 500 
Q 1428 441 1663 441 
Q 2288 441 2617 861 
Q 2947 1281 2994 2138 
Q 2813 1869 2534 1725 
Q 2256 1581 1919 1581 
Q 1219 1581 811 2004 
Q 403 2428 403 3163 
Q 403 3881 828 4315 
Q 1253 4750 1959 4750 
Q 2769 4750 3195 4129 
Q 3622 3509 3622 2328 
Q 3622 1225 3098 567 
Q 2575 -91 1691 -91 
Q 1453 -91 1209 -44 
Q 966 3 703 97 
z
M 1959 2075 
Q 2384 2075 2632 2365 
Q 2881 2656 2881 3163 
Q 2881 3666 2632 3958 
Q 2384 4250 1959 4250 
Q 1534 4250 1286 3958 
Q 1038 3666 1038 3163 
Q 1038 2656 1286 2365 
Q 1534 2075 1959 2075 
z
" transform="scale(0.015625)"/>
       </defs>
       <use xlink:href="#DejaVuSans-17"/>
       <use xlink:href="#DejaVuSans-13" transform="translate(63.625 0)"/>
       <use xlink:href="#DejaVuSans-1c" transform="translate(127.25 0)"/>
       <use xlink:href="#DejaVuSans-19" transform="translate(190.875 0)"/>
      </g>
     </g>
    </g>
    <g id="xtick_8">
     <g id="line2d_15">
      <path d="M 337.265453 280.582281 
L 337.265453 25.558281 
" clip-path="url(#p4fc2dfe521)" style="fill: none; stroke: #e6e5e1; stroke-opacity: 0.9; stroke-width: 0.8; stroke-linecap: square"/>
     </g>
     <g id="line2d_16">
      <g>
       <use xlink:href="#m5fdb28a43b" x="337.265453" y="280.582281" style="fill: #52514e; stroke: #52514e; stroke-width: 0.8"/>
      </g>
     </g>
     <g id="text_8">
      <!-- 8192 -->
      <g style="fill: #52514e" transform="translate(325.812953 293.920172) scale(0.09 -0.09)">
       <use xlink:href="#DejaVuSans-1b"/>
       <use xlink:href="#DejaVuSans-14" transform="translate(63.625 0)"/>
       <use xlink:href="#DejaVuSans-1c" transform="translate(127.25 0)"/>
       <use xlink:href="#DejaVuSans-15" transform="translate(190.875 0)"/>
      </g>
     </g>
    </g>
    <g id="xtick_9">
     <g id="line2d_17">
      <path d="M 372.983219 280.582281 
L 372.983219 25.558281 
" clip-path="url(#p4fc2dfe521)" style="fill: none; stroke: #e6e5e1; stroke-opacity: 0.9; stroke-width: 0.8; stroke-linecap: square"/>
     </g>
     <g id="line2d_18">
      <g>
       <use xlink:href="#m5fdb28a43b" x="372.983219" y="280.582281" style="fill: #52514e; stroke: #52514e; stroke-width: 0.8"/>
      </g>
     </g>
     <g id="text_9">
      <!-- 16384 -->
      <g style="fill: #52514e" transform="translate(358.667594 293.920172) scale(0.09 -0.09)">
       <defs>
        <path id="DejaVuSans-16" d="M 2597 2516 
Q 3050 2419 3304 2112 
Q 3559 1806 3559 1356 
Q 3559 666 3084 287 
Q 2609 -91 1734 -91 
Q 1441 -91 1130 -33 
Q 819 25 488 141 
L 488 750 
Q 750 597 1062 519 
Q 1375 441 1716 441 
Q 2309 441 2620 675 
Q 2931 909 2931 1356 
Q 2931 1769 2642 2001 
Q 2353 2234 1838 2234 
L 1294 2234 
L 1294 2753 
L 1863 2753 
Q 2328 2753 2575 2939 
Q 2822 3125 2822 3475 
Q 2822 3834 2567 4026 
Q 2313 4219 1838 4219 
Q 1578 4219 1281 4162 
Q 984 4106 628 3988 
L 628 4550 
Q 988 4650 1302 4700 
Q 1616 4750 1894 4750 
Q 2613 4750 3031 4423 
Q 3450 4097 3450 3541 
Q 3450 3153 3228 2886 
Q 3006 2619 2597 2516 
z
" transform="scale(0.015625)"/>
       </defs>
       <use xlink:href="#DejaVuSans-14"/>
       <use xlink:href="#DejaVuSans-19" transform="translate(63.625 0)"/>
       <use xlink:href="#DejaVuSans-16" transform="translate(127.25 0)"/>
       <use xlink:href="#DejaVuSans-1b" transform="translate(190.875 0)"/>
       <use xlink:href="#DejaVuSans-17" transform="translate(254.5 0)"/>
      </g>
     </g>
    </g>
    <g id="xtick_10">
     <g id="line2d_19">
      <path d="M 405.282985 280.582281 
L 405.282985 25.558281 
" clip-path="url(#p4fc2dfe521)" style="fill: none; stroke: #e6e5e1; stroke-opacity: 0.9; stroke-width: 0.8; stroke-linecap: square"/>
     </g>
     <g id="line2d_20">
      <g>
       <use xlink:href="#m5fdb28a43b" x="405.282985" y="280.582281" style="fill: #52514e; stroke: #52514e; stroke-width: 0.8"/>
      </g>
     </g>
     <g id="text_10">
      <!-- 30665 -->
      <g style="fill: #52514e" transform="translate(390.96736 293.920172) scale(0.09 -0.09)">
       <use xlink:href="#DejaVuSans-16"/>
       <use xlink:href="#DejaVuSans-13" transform="translate(63.625 0)"/>
       <use xlink:href="#DejaVuSans-19" transform="translate(127.25 0)"/>
       <use xlink:href="#DejaVuSans-19" transform="translate(190.875 0)"/>
       <use xlink:href="#DejaVuSans-18" transform="translate(254.5 0)"/>
      </g>
     </g>
    </g>
    <g id="xtick_11">
     <g id="line2d_21">
      <path d="M 408.700985 280.582281 
L 408.700985 25.558281 
" clip-path="url(#p4fc2dfe521)" style="fill: none; stroke: #e6e5e1; stroke-opacity: 0.9; stroke-width: 0.8; stroke-linecap: square"/>
     </g>
     <g id="line2d_22">
      <g>
       <use xlink:href="#m5fdb28a43b" x="408.700985" y="280.582281" style="fill: #52514e; stroke: #52514e; stroke-width: 0.8"/>
      </g>
     </g>
     <g id="text_11">
      <!-- 32768 -->
      <g style="fill: #52514e" transform="translate(394.38536 293.920172) scale(0.09 -0.09)">
       <defs>
        <path id="DejaVuSans-1a" d="M 525 4666 
L 3525 4666 
L 3525 4397 
L 1831 0 
L 1172 0 
L 2766 4134 
L 525 4134 
L 525 4666 
z
" transform="scale(0.015625)"/>
       </defs>
       <use xlink:href="#DejaVuSans-16"/>
       <use xlink:href="#DejaVuSans-15" transform="translate(63.625 0)"/>
       <use xlink:href="#DejaVuSans-1a" transform="translate(127.25 0)"/>
       <use xlink:href="#DejaVuSans-19" transform="translate(190.875 0)"/>
       <use xlink:href="#DejaVuSans-1b" transform="translate(254.5 0)"/>
      </g>
     </g>
    </g>
    <g id="xtick_12">
     <g id="line2d_23">
      <path d="M 410.6377 280.582281 
L 410.6377 25.558281 
" clip-path="url(#p4fc2dfe521)" style="fill: none; stroke: #e6e5e1; stroke-opacity: 0.9; stroke-width: 0.8; stroke-linecap: square"/>
     </g>
     <g id="line2d_24">
      <g>
       <use xlink:href="#m5fdb28a43b" x="410.6377" y="280.582281" style="fill: #52514e; stroke: #52514e; stroke-width: 0.8"/>
      </g>
     </g>
     <g id="text_12">
      <!-- 34023 -->
      <g style="fill: #52514e" transform="translate(396.322075 293.920172) scale(0.09 -0.09)">
       <use xlink:href="#DejaVuSans-16"/>
       <use xlink:href="#DejaVuSans-17" transform="translate(63.625 0)"/>
       <use xlink:href="#DejaVuSans-13" transform="translate(127.25 0)"/>
       <use xlink:href="#DejaVuSans-15" transform="translate(190.875 0)"/>
       <use xlink:href="#DejaVuSans-16" transform="translate(254.5 0)"/>
      </g>
     </g>
    </g>
    <g id="xtick_13">
     <g id="line2d_25">
      <path d="M 444.418751 280.582281 
L 444.418751 25.558281 
" clip-path="url(#p4fc2dfe521)" style="fill: none; stroke: #e6e5e1; stroke-opacity: 0.9; stroke-width: 0.8; stroke-linecap: square"/>
     </g>
     <g id="line2d_26">
      <g>
       <use xlink:href="#m5fdb28a43b" x="444.418751" y="280.582281" style="fill: #52514e; stroke: #52514e; stroke-width: 0.8"/>
      </g>
     </g>
     <g id="text_13">
      <!-- 65536 -->
      <g style="fill: #52514e" transform="translate(430.103126 293.920172) scale(0.09 -0.09)">
       <use xlink:href="#DejaVuSans-19"/>
       <use xlink:href="#DejaVuSans-18" transform="translate(63.625 0)"/>
       <use xlink:href="#DejaVuSans-18" transform="translate(127.25 0)"/>
       <use xlink:href="#DejaVuSans-16" transform="translate(190.875 0)"/>
       <use xlink:href="#DejaVuSans-19" transform="translate(254.5 0)"/>
      </g>
     </g>
    </g>
    <g id="xtick_14">
     <g id="line2d_27">
      <path d="M 462.622909 280.582281 
L 462.622909 25.558281 
" clip-path="url(#p4fc2dfe521)" style="fill: none; stroke: #e6e5e1; stroke-opacity: 0.9; stroke-width: 0.8; stroke-linecap: square"/>
     </g>
     <g id="line2d_28">
      <g>
       <use xlink:href="#m5fdb28a43b" x="462.622909" y="280.582281" style="fill: #52514e; stroke: #52514e; stroke-width: 0.8"/>
      </g>
     </g>
     <g id="text_14">
      <!-- 93305 -->
      <g style="fill: #52514e" transform="translate(448.307284 293.920172) scale(0.09 -0.09)">
       <use xlink:href="#DejaVuSans-1c"/>
       <use xlink:href="#DejaVuSans-16" transform="translate(63.625 0)"/>
       <use xlink:href="#DejaVuSans-16" transform="translate(127.25 0)"/>
       <use xlink:href="#DejaVuSans-13" transform="translate(190.875 0)"/>
       <use xlink:href="#DejaVuSans-18" transform="translate(254.5 0)"/>
      </g>
     </g>
    </g>
    <g id="text_15">
     <!-- labelled training sequences -->
     <g style="fill: #52514e" transform="translate(205.951531 307.680719) scale(0.1 -0.1)">
      <defs>
       <path id="DejaVuSans-4f" d="M 603 4863 
L 1178 4863 
L 1178 0 
L 603 0 
L 603 4863 
z
" transform="scale(0.015625)"/>
       <path id="DejaVuSans-44" d="M 2194 1759 
Q 1497 1759 1228 1600 
Q 959 1441 959 1056 
Q 959 750 1161 570 
Q 1363 391 1709 391 
Q 2188 391 2477 730 
Q 2766 1069 2766 1631 
L 2766 1759 
L 2194 1759 
z
M 3341 1997 
L 3341 0 
L 2766 0 
L 2766 531 
Q 2569 213 2275 61 
Q 1981 -91 1556 -91 
Q 1019 -91 701 211 
Q 384 513 384 1019 
Q 384 1609 779 1909 
Q 1175 2209 1959 2209 
L 2766 2209 
L 2766 2266 
Q 2766 2663 2505 2880 
Q 2244 3097 1772 3097 
Q 1472 3097 1187 3025 
Q 903 2953 641 2809 
L 641 3341 
Q 956 3463 1253 3523 
Q 1550 3584 1831 3584 
Q 2591 3584 2966 3190 
Q 3341 2797 3341 1997 
z
" transform="scale(0.015625)"/>
       <path id="DejaVuSans-45" d="M 3116 1747 
Q 3116 2381 2855 2742 
Q 2594 3103 2138 3103 
Q 1681 3103 1420 2742 
Q 1159 2381 1159 1747 
Q 1159 1113 1420 752 
Q 1681 391 2138 391 
Q 2594 391 2855 752 
Q 3116 1113 3116 1747 
z
M 1159 2969 
Q 1341 3281 1617 3432 
Q 1894 3584 2278 3584 
Q 2916 3584 3314 3078 
Q 3713 2572 3713 1747 
Q 3713 922 3314 415 
Q 2916 -91 2278 -91 
Q 1894 -91 1617 61 
Q 1341 213 1159 525 
L 1159 0 
L 581 0 
L 581 4863 
L 1159 4863 
L 1159 2969 
z
" transform="scale(0.015625)"/>
       <path id="DejaVuSans-48" d="M 3597 1894 
L 3597 1613 
L 953 1613 
Q 991 1019 1311 708 
Q 1631 397 2203 397 
Q 2534 397 2845 478 
Q 3156 559 3463 722 
L 3463 178 
Q 3153 47 2828 -22 
Q 2503 -91 2169 -91 
Q 1331 -91 842 396 
Q 353 884 353 1716 
Q 353 2575 817 3079 
Q 1281 3584 2069 3584 
Q 2775 3584 3186 3129 
Q 3597 2675 3597 1894 
z
M 3022 2063 
Q 3016 2534 2758 2815 
Q 2500 3097 2075 3097 
Q 1594 3097 1305 2825 
Q 1016 2553 972 2059 
L 3022 2063 
z
" transform="scale(0.015625)"/>
       <path id="DejaVuSans-47" d="M 2906 2969 
L 2906 4863 
L 3481 4863 
L 3481 0 
L 2906 0 
L 2906 525 
Q 2725 213 2448 61 
Q 2172 -91 1784 -91 
Q 1150 -91 751 415 
Q 353 922 353 1747 
Q 353 2572 751 3078 
Q 1150 3584 1784 3584 
Q 2172 3584 2448 3432 
Q 2725 3281 2906 2969 
z
M 947 1747 
Q 947 1113 1208 752 
Q 1469 391 1925 391 
Q 2381 391 2643 752 
Q 2906 1113 2906 1747 
Q 2906 2381 2643 2742 
Q 2381 3103 1925 3103 
Q 1469 3103 1208 2742 
Q 947 2381 947 1747 
z
" transform="scale(0.015625)"/>
       <path id="DejaVuSans-3" transform="scale(0.015625)"/>
       <path id="DejaVuSans-57" d="M 1172 4494 
L 1172 3500 
L 2356 3500 
L 2356 3053 
L 1172 3053 
L 1172 1153 
Q 1172 725 1289 603 
Q 1406 481 1766 481 
L 2356 481 
L 2356 0 
L 1766 0 
Q 1100 0 847 248 
Q 594 497 594 1153 
L 594 3053 
L 172 3053 
L 172 3500 
L 594 3500 
L 594 4494 
L 1172 4494 
z
" transform="scale(0.015625)"/>
       <path id="DejaVuSans-55" d="M 2631 2963 
Q 2534 3019 2420 3045 
Q 2306 3072 2169 3072 
Q 1681 3072 1420 2755 
Q 1159 2438 1159 1844 
L 1159 0 
L 581 0 
L 581 3500 
L 1159 3500 
L 1159 2956 
Q 1341 3275 1631 3429 
Q 1922 3584 2338 3584 
Q 2397 3584 2469 3576 
Q 2541 3569 2628 3553 
L 2631 2963 
z
" transform="scale(0.015625)"/>
       <path id="DejaVuSans-4c" d="M 603 3500 
L 1178 3500 
L 1178 0 
L 603 0 
L 603 3500 
z
M 603 4863 
L 1178 4863 
L 1178 4134 
L 603 4134 
L 603 4863 
z
" transform="scale(0.015625)"/>
       <path id="DejaVuSans-51" d="M 3513 2113 
L 3513 0 
L 2938 0 
L 2938 2094 
Q 2938 2591 2744 2837 
Q 2550 3084 2163 3084 
Q 1697 3084 1428 2787 
Q 1159 2491 1159 1978 
L 1159 0 
L 581 0 
L 581 3500 
L 1159 3500 
L 1159 2956 
Q 1366 3272 1645 3428 
Q 1925 3584 2291 3584 
Q 2894 3584 3203 3211 
Q 3513 2838 3513 2113 
z
" transform="scale(0.015625)"/>
       <path id="DejaVuSans-4a" d="M 2906 1791 
Q 2906 2416 2648 2759 
Q 2391 3103 1925 3103 
Q 1463 3103 1205 2759 
Q 947 2416 947 1791 
Q 947 1169 1205 825 
Q 1463 481 1925 481 
Q 2391 481 2648 825 
Q 2906 1169 2906 1791 
z
M 3481 434 
Q 3481 -459 3084 -895 
Q 2688 -1331 1869 -1331 
Q 1566 -1331 1297 -1286 
Q 1028 -1241 775 -1147 
L 775 -588 
Q 1028 -725 1275 -790 
Q 1522 -856 1778 -856 
Q 2344 -856 2625 -561 
Q 2906 -266 2906 331 
L 2906 616 
Q 2728 306 2450 153 
Q 2172 0 1784 0 
Q 1141 0 747 490 
Q 353 981 353 1791 
Q 353 2603 747 3093 
Q 1141 3584 1784 3584 
Q 2172 3584 2450 3431 
Q 2728 3278 2906 2969 
L 2906 3500 
L 3481 3500 
L 3481 434 
z
" transform="scale(0.015625)"/>
       <path id="DejaVuSans-56" d="M 2834 3397 
L 2834 2853 
Q 2591 2978 2328 3040 
Q 2066 3103 1784 3103 
Q 1356 3103 1142 2972 
Q 928 2841 928 2578 
Q 928 2378 1081 2264 
Q 1234 2150 1697 2047 
L 1894 2003 
Q 2506 1872 2764 1633 
Q 3022 1394 3022 966 
Q 3022 478 2636 193 
Q 2250 -91 1575 -91 
Q 1294 -91 989 -36 
Q 684 19 347 128 
L 347 722 
Q 666 556 975 473 
Q 1284 391 1588 391 
Q 1994 391 2212 530 
Q 2431 669 2431 922 
Q 2431 1156 2273 1281 
Q 2116 1406 1581 1522 
L 1381 1569 
Q 847 1681 609 1914 
Q 372 2147 372 2553 
Q 372 3047 722 3315 
Q 1072 3584 1716 3584 
Q 2034 3584 2315 3537 
Q 2597 3491 2834 3397 
z
" transform="scale(0.015625)"/>
       <path id="DejaVuSans-54" d="M 947 1747 
Q 947 1113 1208 752 
Q 1469 391 1925 391 
Q 2381 391 2643 752 
Q 2906 1113 2906 1747 
Q 2906 2381 2643 2742 
Q 2381 3103 1925 3103 
Q 1469 3103 1208 2742 
Q 947 2381 947 1747 
z
M 2906 525 
Q 2725 213 2448 61 
Q 2172 -91 1784 -91 
Q 1150 -91 751 415 
Q 353 922 353 1747 
Q 353 2572 751 3078 
Q 1150 3584 1784 3584 
Q 2172 3584 2448 3432 
Q 2725 3281 2906 2969 
L 2906 3500 
L 3481 3500 
L 3481 -1331 
L 2906 -1331 
L 2906 525 
z
" transform="scale(0.015625)"/>
       <path id="DejaVuSans-58" d="M 544 1381 
L 544 3500 
L 1119 3500 
L 1119 1403 
Q 1119 906 1312 657 
Q 1506 409 1894 409 
Q 2359 409 2629 706 
Q 2900 1003 2900 1516 
L 2900 3500 
L 3475 3500 
L 3475 0 
L 2900 0 
L 2900 538 
Q 2691 219 2414 64 
Q 2138 -91 1772 -91 
Q 1169 -91 856 284 
Q 544 659 544 1381 
z
M 1991 3584 
L 1991 3584 
z
" transform="scale(0.015625)"/>
       <path id="DejaVuSans-46" d="M 3122 3366 
L 3122 2828 
Q 2878 2963 2633 3030 
Q 2388 3097 2138 3097 
Q 1578 3097 1268 2742 
Q 959 2388 959 1747 
Q 959 1106 1268 751 
Q 1578 397 2138 397 
Q 2388 397 2633 464 
Q 2878 531 3122 666 
L 3122 134 
Q 2881 22 2623 -34 
Q 2366 -91 2075 -91 
Q 1284 -91 818 406 
Q 353 903 353 1747 
Q 353 2603 823 3093 
Q 1294 3584 2113 3584 
Q 2378 3584 2631 3529 
Q 2884 3475 3122 3366 
z
" transform="scale(0.015625)"/>
      </defs>
      <use xlink:href="#DejaVuSans-4f"/>
      <use xlink:href="#DejaVuSans-44" transform="translate(27.78125 0)"/>
      <use xlink:href="#DejaVuSans-45" transform="translate(89.0625 0)"/>
      <use xlink:href="#DejaVuSans-48" transform="translate(152.546875 0)"/>
      <use xlink:href="#DejaVuSans-4f" transform="translate(214.078125 0)"/>
      <use xlink:href="#DejaVuSans-4f" transform="translate(241.859375 0)"/>
      <use xlink:href="#DejaVuSans-48" transform="translate(269.640625 0)"/>
      <use xlink:href="#DejaVuSans-47" transform="translate(331.171875 0)"/>
      <use xlink:href="#DejaVuSans-3" transform="translate(394.65625 0)"/>
      <use xlink:href="#DejaVuSans-57" transform="translate(426.4375 0)"/>
      <use xlink:href="#DejaVuSans-55" transform="translate(465.640625 0)"/>
      <use xlink:href="#DejaVuSans-44" transform="translate(506.75 0)"/>
      <use xlink:href="#DejaVuSans-4c" transform="translate(568.03125 0)"/>
      <use xlink:href="#DejaVuSans-51" transform="translate(595.8125 0)"/>
      <use xlink:href="#DejaVuSans-4c" transform="translate(659.1875 0)"/>
      <use xlink:href="#DejaVuSans-51" transform="translate(686.96875 0)"/>
      <use xlink:href="#DejaVuSans-4a" transform="translate(750.34375 0)"/>
      <use xlink:href="#DejaVuSans-3" transform="translate(813.828125 0)"/>
      <use xlink:href="#DejaVuSans-56" transform="translate(845.609375 0)"/>
      <use xlink:href="#DejaVuSans-48" transform="translate(897.703125 0)"/>
      <use xlink:href="#DejaVuSans-54" transform="translate(959.234375 0)"/>
      <use xlink:href="#DejaVuSans-58" transform="translate(1022.71875 0)"/>
      <use xlink:href="#DejaVuSans-48" transform="translate(1086.09375 0)"/>
      <use xlink:href="#DejaVuSans-51" transform="translate(1147.625 0)"/>
      <use xlink:href="#DejaVuSans-46" transform="translate(1211 0)"/>
      <use xlink:href="#DejaVuSans-48" transform="translate(1265.984375 0)"/>
      <use xlink:href="#DejaVuSans-56" transform="translate(1327.515625 0)"/>
     </g>
    </g>
   </g>
   <g id="matplotlib.axis_2">
    <g id="text_16">
     <!-- 1 − ROC-AUC (lower is better) -->
     <g style="fill: #52514e" transform="translate(62.069656 228.421062) rotate(-90) scale(0.1 -0.1)">
      <defs>
       <path id="DejaVuSans-c9c" d="M 678 2272 
L 4684 2272 
L 4684 1741 
L 678 1741 
L 678 2272 
z
" transform="scale(0.015625)"/>
       <path id="DejaVuSans-35" d="M 2841 2188 
Q 3044 2119 3236 1894 
Q 3428 1669 3622 1275 
L 4263 0 
L 3584 0 
L 2988 1197 
Q 2756 1666 2539 1819 
Q 2322 1972 1947 1972 
L 1259 1972 
L 1259 0 
L 628 0 
L 628 4666 
L 2053 4666 
Q 2853 4666 3247 4331 
Q 3641 3997 3641 3322 
Q 3641 2881 3436 2590 
Q 3231 2300 2841 2188 
z
M 1259 4147 
L 1259 2491 
L 2053 2491 
Q 2509 2491 2742 2702 
Q 2975 2913 2975 3322 
Q 2975 3731 2742 3939 
Q 2509 4147 2053 4147 
L 1259 4147 
z
" transform="scale(0.015625)"/>
       <path id="DejaVuSans-32" d="M 2522 4238 
Q 1834 4238 1429 3725 
Q 1025 3213 1025 2328 
Q 1025 1447 1429 934 
Q 1834 422 2522 422 
Q 3209 422 3611 934 
Q 4013 1447 4013 2328 
Q 4013 3213 3611 3725 
Q 3209 4238 2522 4238 
z
M 2522 4750 
Q 3503 4750 4090 4092 
Q 4678 3434 4678 2328 
Q 4678 1225 4090 567 
Q 3503 -91 2522 -91 
Q 1538 -91 948 565 
Q 359 1222 359 2328 
Q 359 3434 948 4092 
Q 1538 4750 2522 4750 
z
" transform="scale(0.015625)"/>
       <path id="DejaVuSans-26" d="M 4122 4306 
L 4122 3641 
Q 3803 3938 3442 4084 
Q 3081 4231 2675 4231 
Q 1875 4231 1450 3742 
Q 1025 3253 1025 2328 
Q 1025 1406 1450 917 
Q 1875 428 2675 428 
Q 3081 428 3442 575 
Q 3803 722 4122 1019 
L 4122 359 
Q 3791 134 3420 21 
Q 3050 -91 2638 -91 
Q 1578 -91 968 557 
Q 359 1206 359 2328 
Q 359 3453 968 4101 
Q 1578 4750 2638 4750 
Q 3056 4750 3426 4639 
Q 3797 4528 4122 4306 
z
" transform="scale(0.015625)"/>
       <path id="DejaVuSans-10" d="M 313 2009 
L 1997 2009 
L 1997 1497 
L 313 1497 
L 313 2009 
z
" transform="scale(0.015625)"/>
       <path id="DejaVuSans-24" d="M 2188 4044 
L 1331 1722 
L 3047 1722 
L 2188 4044 
z
M 1831 4666 
L 2547 4666 
L 4325 0 
L 3669 0 
L 3244 1197 
L 1141 1197 
L 716 0 
L 50 0 
L 1831 4666 
z
" transform="scale(0.015625)"/>
       <path id="DejaVuSans-38" d="M 556 4666 
L 1191 4666 
L 1191 1831 
Q 1191 1081 1462 751 
Q 1734 422 2344 422 
Q 2950 422 3222 751 
Q 3494 1081 3494 1831 
L 3494 4666 
L 4128 4666 
L 4128 1753 
Q 4128 841 3676 375 
Q 3225 -91 2344 -91 
Q 1459 -91 1007 375 
Q 556 841 556 1753 
L 556 4666 
z
" transform="scale(0.015625)"/>
       <path id="DejaVuSans-b" d="M 1984 4856 
Q 1566 4138 1362 3434 
Q 1159 2731 1159 2009 
Q 1159 1288 1364 580 
Q 1569 -128 1984 -844 
L 1484 -844 
Q 1016 -109 783 600 
Q 550 1309 550 2009 
Q 550 2706 781 3412 
Q 1013 4119 1484 4856 
L 1984 4856 
z
" transform="scale(0.015625)"/>
       <path id="DejaVuSans-52" d="M 1959 3097 
Q 1497 3097 1228 2736 
Q 959 2375 959 1747 
Q 959 1119 1226 758 
Q 1494 397 1959 397 
Q 2419 397 2687 759 
Q 2956 1122 2956 1747 
Q 2956 2369 2687 2733 
Q 2419 3097 1959 3097 
z
M 1959 3584 
Q 2709 3584 3137 3096 
Q 3566 2609 3566 1747 
Q 3566 888 3137 398 
Q 2709 -91 1959 -91 
Q 1206 -91 779 398 
Q 353 888 353 1747 
Q 353 2609 779 3096 
Q 1206 3584 1959 3584 
z
" transform="scale(0.015625)"/>
       <path id="DejaVuSans-5a" d="M 269 3500 
L 844 3500 
L 1563 769 
L 2278 3500 
L 2956 3500 
L 3675 769 
L 4391 3500 
L 4966 3500 
L 4050 0 
L 3372 0 
L 2619 2869 
L 1863 0 
L 1184 0 
L 269 3500 
z
" transform="scale(0.015625)"/>
       <path id="DejaVuSans-c" d="M 513 4856 
L 1013 4856 
Q 1481 4119 1714 3412 
Q 1947 2706 1947 2009 
Q 1947 1309 1714 600 
Q 1481 -109 1013 -844 
L 513 -844 
Q 928 -128 1133 580 
Q 1338 1288 1338 2009 
Q 1338 2731 1133 3434 
Q 928 4138 513 4856 
z
" transform="scale(0.015625)"/>
      </defs>
      <use xlink:href="#DejaVuSans-14"/>
      <use xlink:href="#DejaVuSans-3" transform="translate(63.625 0)"/>
      <use xlink:href="#DejaVuSans-c9c" transform="translate(95.40625 0)"/>
      <use xlink:href="#DejaVuSans-3" transform="translate(179.203125 0)"/>
      <use xlink:href="#DejaVuSans-35" transform="translate(210.984375 0)"/>
      <use xlink:href="#DejaVuSans-32" transform="translate(280.46875 0)"/>
      <use xlink:href="#DejaVuSans-26" transform="translate(359.1875 0)"/>
      <use xlink:href="#DejaVuSans-10" transform="translate(429.015625 0)"/>
      <use xlink:href="#DejaVuSans-24" transform="translate(462.890625 0)"/>
      <use xlink:href="#DejaVuSans-38" transform="translate(531.296875 0)"/>
      <use xlink:href="#DejaVuSans-26" transform="translate(604.484375 0)"/>
      <use xlink:href="#DejaVuSans-3" transform="translate(674.3125 0)"/>
      <use xlink:href="#DejaVuSans-b" transform="translate(706.09375 0)"/>
      <use xlink:href="#DejaVuSans-4f" transform="translate(745.109375 0)"/>
      <use xlink:href="#DejaVuSans-52" transform="translate(772.890625 0)"/>
      <use xlink:href="#DejaVuSans-5a" transform="translate(834.078125 0)"/>
      <use xlink:href="#DejaVuSans-48" transform="translate(915.859375 0)"/>
      <use xlink:href="#DejaVuSans-55" transform="translate(977.390625 0)"/>
      <use xlink:href="#DejaVuSans-3" transform="translate(1018.5 0)"/>
      <use xlink:href="#DejaVuSans-4c" transform="translate(1050.28125 0)"/>
      <use xlink:href="#DejaVuSans-56" transform="translate(1078.0625 0)"/>
      <use xlink:href="#DejaVuSans-3" transform="translate(1130.15625 0)"/>
      <use xlink:href="#DejaVuSans-45" transform="translate(1161.9375 0)"/>
      <use xlink:href="#DejaVuSans-48" transform="translate(1225.421875 0)"/>
      <use xlink:href="#DejaVuSans-57" transform="translate(1286.953125 0)"/>
      <use xlink:href="#DejaVuSans-57" transform="translate(1326.15625 0)"/>
      <use xlink:href="#DejaVuSans-48" transform="translate(1365.359375 0)"/>
      <use xlink:href="#DejaVuSans-55" transform="translate(1426.890625 0)"/>
      <use xlink:href="#DejaVuSans-c" transform="translate(1468 0)"/>
     </g>
    </g>
   </g>
   <g id="line2d_29">
    <path d="M 87.241091 58.888004 
L 92.289375 59.585938 
L 97.337659 60.283872 
L 102.385943 60.981807 
L 107.434227 61.679741 
L 112.482511 62.377675 
L 117.530795 63.075609 
L 122.579079 63.773544 
L 127.627363 64.471478 
L 132.675647 65.169412 
L 137.723931 65.867347 
L 142.772215 66.565281 
L 147.820499 67.263215 
L 152.868783 67.96115 
L 157.917067 68.659084 
L 162.965351 69.357018 
L 168.013635 70.054953 
L 173.061919 70.752887 
L 178.110203 71.450821 
L 183.158487 72.148756 
L 188.206772 72.84669 
L 193.255056 73.544624 
L 198.30334 74.242558 
L 203.351624 74.940493 
L 208.399908 75.638427 
L 213.448192 76.336361 
L 218.496476 77.034296 
L 223.54476 77.73223 
L 228.593044 78.430164 
L 233.641328 79.128099 
L 238.689612 79.826033 
L 243.737896 80.523967 
L 248.78618 81.221902 
L 253.834464 81.919836 
L 258.882748 82.61777 
L 263.931032 83.315705 
L 268.979316 84.013639 
L 274.0276 84.711573 
L 279.075884 85.409507 
L 284.124168 86.107442 
L 289.172452 86.805376 
L 294.220736 87.50331 
L 299.26902 88.201245 
L 304.317304 88.899179 
L 309.365588 89.597113 
L 314.413872 90.295048 
L 319.462156 90.992982 
L 324.51044 91.690916 
L 329.558724 92.388851 
L 334.607008 93.086785 
L 339.655292 93.784719 
L 344.703576 94.482654 
L 349.75186 95.180588 
L 354.800144 95.878522 
L 359.848429 96.576456 
L 364.896713 97.274391 
L 369.944997 97.972325 
L 374.993281 98.670259 
L 380.041565 99.368194 
L 385.089849 100.066128 
L 390.138133 100.764062 
L 395.186417 101.461997 
L 400.234701 102.159931 
L 405.282985 102.857865 
" clip-path="url(#p4fc2dfe521)" style="fill: none; stroke-dasharray: 4.8,3.6; stroke-dashoffset: 0; stroke: #2a78d6; stroke-opacity: 0.75; stroke-width: 1.2"/>
   </g>
   <g id="line2d_30">
    <path d="M 87.241091 141.637154 
L 93.199532 143.658633 
L 99.157974 145.680111 
L 105.116416 147.701589 
L 111.074857 149.723067 
L 117.033299 151.744545 
L 122.99174 153.766024 
L 128.950182 155.787502 
L 134.908623 157.80898 
L 140.867065 159.830458 
L 146.825506 161.851936 
L 152.783948 163.873415 
L 158.74239 165.894893 
L 164.700831 167.916371 
L 170.659273 169.937849 
L 176.617714 171.959327 
L 182.576156 173.980806 
L 188.534597 176.002284 
L 194.493039 178.023762 
L 200.451481 180.04524 
L 206.409922 182.066718 
L 212.368364 184.088197 
L 218.326805 186.109675 
L 224.285247 188.131153 
L 230.243688 190.152631 
L 236.20213 192.174109 
L 242.160571 194.195588 
L 248.119013 196.217066 
L 254.077455 198.238544 
L 260.035896 200.260022 
L 265.994338 202.281501 
L 271.952779 204.302979 
L 277.911221 206.324457 
L 283.869662 208.345935 
L 289.828104 210.367413 
L 295.786545 212.388892 
L 301.744987 214.41037 
L 307.703429 216.431848 
L 313.66187 218.453326 
L 319.620312 220.474804 
L 325.578753 222.496283 
L 331.537195 224.517761 
L 337.495636 226.539239 
L 343.454078 228.560717 
L 349.412519 230.582195 
L 355.370961 232.603674 
L 361.329403 234.625152 
L 367.287844 236.64663 
L 373.246286 238.668108 
L 379.204727 240.689586 
L 385.163169 242.711065 
L 391.12161 244.732543 
L 397.080052 246.754021 
L 403.038494 248.775499 
L 408.996935 250.796977 
L 414.955377 252.818456 
L 420.913818 254.839934 
L 426.87226 256.861412 
L 432.830701 258.88289 
L 438.789143 260.904368 
L 444.747584 262.925847 
L 450.706026 264.947325 
L 456.664468 266.968803 
L 462.622909 268.990281 
" clip-path="url(#p4fc2dfe521)" style="fill: none; stroke-dasharray: 4.8,3.6; stroke-dashoffset: 0; stroke: #eb6834; stroke-opacity: 0.75; stroke-width: 1.2"/>
   </g>
   <g id="line2d_31">
    <path d="M 87.241091 40.646828 
L 92.37437 41.526763 
L 97.50765 42.406697 
L 102.640929 43.286631 
L 107.774209 44.166566 
L 112.907488 45.0465 
L 118.040768 45.926435 
L 123.174047 46.806369 
L 128.307327 47.686304 
L 133.440606 48.566238 
L 138.573886 49.446173 
L 143.707165 50.326107 
L 148.840445 51.206041 
L 153.973724 52.085976 
L 159.107004 52.96591 
L 164.240283 53.845845 
L 169.373563 54.725779 
L 174.506842 55.605714 
L 179.640122 56.485648 
L 184.773401 57.365583 
L 189.906681 58.245517 
L 195.03996 59.125451 
L 200.17324 60.005386 
L 205.306519 60.88532 
L 210.439799 61.765255 
L 215.573078 62.645189 
L 220.706358 63.525124 
L 225.839637 64.405058 
L 230.972917 65.284992 
L 236.106197 66.164927 
L 241.239476 67.044861 
L 246.372756 67.924796 
L 251.506035 68.80473 
L 256.639315 69.684665 
L 261.772594 70.564599 
L 266.905874 71.444534 
L 272.039153 72.324468 
L 277.172433 73.204402 
L 282.305712 74.084337 
L 287.438992 74.964271 
L 292.572271 75.844206 
L 297.705551 76.72414 
L 302.83883 77.604075 
L 307.97211 78.484009 
L 313.105389 79.363944 
L 318.238669 80.243878 
L 323.371948 81.123812 
L 328.505228 82.003747 
L 333.638507 82.883681 
L 338.771787 83.763616 
L 343.905066 84.64355 
L 349.038346 85.523485 
L 354.171625 86.403419 
L 359.304905 87.283354 
L 364.438184 88.163288 
L 369.571464 89.043222 
L 374.704743 89.923157 
L 379.838023 90.803091 
L 384.971302 91.683026 
L 390.104582 92.56296 
L 395.237861 93.442895 
L 400.371141 94.322829 
L 405.50442 95.202763 
L 410.6377 96.082698 
" clip-path="url(#p4fc2dfe521)" style="fill: none; stroke-dasharray: 4.8,3.6; stroke-dashoffset: 0; stroke: #1baf7a; stroke-opacity: 0.75; stroke-width: 1.2"/>
   </g>
   <g id="patch_3">
    <path d="M 68.472 280.582281 
L 68.472 25.558281 
" style="fill: none; stroke: #b4b3ad; stroke-width: 0.8; stroke-linejoin: miter; stroke-linecap: square"/>
   </g>
   <g id="patch_4">
    <path d="M 68.472 280.582281 
L 481.392 280.582281 
" style="fill: none; stroke: #b4b3ad; stroke-width: 0.8; stroke-linejoin: miter; stroke-linecap: square"/>
   </g>
   <g id="text_17">
    <!-- Transaction MLM — scaling law -->
    <g style="fill: #0b0b0b" transform="translate(68.472 15.558281) scale(0.11 -0.11)">
     <defs>
      <path id="DejaVuSans-Bold-37" d="M 31 4666 
L 4331 4666 
L 4331 3756 
L 2784 3756 
L 2784 0 
L 1581 0 
L 1581 3756 
L 31 3756 
L 31 4666 
z
" transform="scale(0.015625)"/>
      <path id="DejaVuSans-Bold-55" d="M 3138 2547 
Q 2991 2616 2845 2648 
Q 2700 2681 2553 2681 
Q 2122 2681 1889 2404 
Q 1656 2128 1656 1613 
L 1656 0 
L 538 0 
L 538 3500 
L 1656 3500 
L 1656 2925 
Q 1872 3269 2151 3426 
Q 2431 3584 2822 3584 
Q 2878 3584 2943 3579 
Q 3009 3575 3134 3559 
L 3138 2547 
z
" transform="scale(0.015625)"/>
      <path id="DejaVuSans-Bold-44" d="M 2106 1575 
Q 1756 1575 1579 1456 
Q 1403 1338 1403 1106 
Q 1403 894 1545 773 
Q 1688 653 1941 653 
Q 2256 653 2472 879 
Q 2688 1106 2688 1447 
L 2688 1575 
L 2106 1575 
z
M 3816 1997 
L 3816 0 
L 2688 0 
L 2688 519 
Q 2463 200 2181 54 
Q 1900 -91 1497 -91 
Q 953 -91 614 226 
Q 275 544 275 1050 
Q 275 1666 698 1953 
Q 1122 2241 2028 2241 
L 2688 2241 
L 2688 2328 
Q 2688 2594 2478 2717 
Q 2269 2841 1825 2841 
Q 1466 2841 1156 2769 
Q 847 2697 581 2553 
L 581 3406 
Q 941 3494 1303 3539 
Q 1666 3584 2028 3584 
Q 2975 3584 3395 3211 
Q 3816 2838 3816 1997 
z
" transform="scale(0.015625)"/>
      <path id="DejaVuSans-Bold-51" d="M 4056 2131 
L 4056 0 
L 2931 0 
L 2931 347 
L 2931 1631 
Q 2931 2084 2911 2256 
Q 2891 2428 2841 2509 
Q 2775 2619 2662 2680 
Q 2550 2741 2406 2741 
Q 2056 2741 1856 2470 
Q 1656 2200 1656 1722 
L 1656 0 
L 538 0 
L 538 3500 
L 1656 3500 
L 1656 2988 
Q 1909 3294 2193 3439 
Q 2478 3584 2822 3584 
Q 3428 3584 3742 3212 
Q 4056 2841 4056 2131 
z
" transform="scale(0.015625)"/>
      <path id="DejaVuSans-Bold-56" d="M 3272 3391 
L 3272 2541 
Q 2913 2691 2578 2766 
Q 2244 2841 1947 2841 
Q 1628 2841 1473 2761 
Q 1319 2681 1319 2516 
Q 1319 2381 1436 2309 
Q 1553 2238 1856 2203 
L 2053 2175 
Q 2913 2066 3209 1816 
Q 3506 1566 3506 1031 
Q 3506 472 3093 190 
Q 2681 -91 1863 -91 
Q 1516 -91 1145 -36 
Q 775 19 384 128 
L 384 978 
Q 719 816 1070 734 
Q 1422 653 1784 653 
Q 2113 653 2278 743 
Q 2444 834 2444 1013 
Q 2444 1163 2330 1236 
Q 2216 1309 1875 1350 
L 1678 1375 
Q 931 1469 631 1722 
Q 331 1975 331 2491 
Q 331 3047 712 3315 
Q 1094 3584 1881 3584 
Q 2191 3584 2531 3537 
Q 2872 3491 3272 3391 
z
" transform="scale(0.015625)"/>
      <path id="DejaVuSans-Bold-46" d="M 3366 3391 
L 3366 2478 
Q 3138 2634 2908 2709 
Q 2678 2784 2431 2784 
Q 1963 2784 1702 2511 
Q 1441 2238 1441 1747 
Q 1441 1256 1702 982 
Q 1963 709 2431 709 
Q 2694 709 2930 787 
Q 3166 866 3366 1019 
L 3366 103 
Q 3103 6 2833 -42 
Q 2563 -91 2291 -91 
Q 1344 -91 809 395 
Q 275 881 275 1747 
Q 275 2613 809 3098 
Q 1344 3584 2291 3584 
Q 2566 3584 2833 3536 
Q 3100 3488 3366 3391 
z
" transform="scale(0.015625)"/>
      <path id="DejaVuSans-Bold-57" d="M 1759 4494 
L 1759 3500 
L 2913 3500 
L 2913 2700 
L 1759 2700 
L 1759 1216 
Q 1759 972 1856 886 
Q 1953 800 2241 800 
L 2816 800 
L 2816 0 
L 1856 0 
Q 1194 0 917 276 
Q 641 553 641 1216 
L 641 2700 
L 84 2700 
L 84 3500 
L 641 3500 
L 641 4494 
L 1759 4494 
z
" transform="scale(0.015625)"/>
      <path id="DejaVuSans-Bold-4c" d="M 538 3500 
L 1656 3500 
L 1656 0 
L 538 0 
L 538 3500 
z
M 538 4863 
L 1656 4863 
L 1656 3950 
L 538 3950 
L 538 4863 
z
" transform="scale(0.015625)"/>
      <path id="DejaVuSans-Bold-52" d="M 2203 2784 
Q 1831 2784 1636 2517 
Q 1441 2250 1441 1747 
Q 1441 1244 1636 976 
Q 1831 709 2203 709 
Q 2569 709 2762 976 
Q 2956 1244 2956 1747 
Q 2956 2250 2762 2517 
Q 2569 2784 2203 2784 
z
M 2203 3584 
Q 3106 3584 3614 3096 
Q 4122 2609 4122 1747 
Q 4122 884 3614 396 
Q 3106 -91 2203 -91 
Q 1297 -91 786 396 
Q 275 884 275 1747 
Q 275 2609 786 3096 
Q 1297 3584 2203 3584 
z
" transform="scale(0.015625)"/>
      <path id="DejaVuSans-Bold-3" transform="scale(0.015625)"/>
      <path id="DejaVuSans-Bold-30" d="M 588 4666 
L 2119 4666 
L 3181 2169 
L 4250 4666 
L 5778 4666 
L 5778 0 
L 4641 0 
L 4641 3413 
L 3566 897 
L 2803 897 
L 1728 3413 
L 1728 0 
L 588 0 
L 588 4666 
z
" transform="scale(0.015625)"/>
      <path id="DejaVuSans-Bold-2f" d="M 588 4666 
L 1791 4666 
L 1791 909 
L 3903 909 
L 3903 0 
L 588 0 
L 588 4666 
z
" transform="scale(0.015625)"/>
      <path id="DejaVuSans-Bold-af6" d="M 344 2156 
L 6056 2156 
L 6056 1350 
L 344 1350 
L 344 2156 
z
" transform="scale(0.015625)"/>
      <path id="DejaVuSans-Bold-4f" d="M 538 4863 
L 1656 4863 
L 1656 0 
L 538 0 
L 538 4863 
z
" transform="scale(0.015625)"/>
      <path id="DejaVuSans-Bold-4a" d="M 2919 594 
Q 2688 288 2409 144 
Q 2131 0 1766 0 
Q 1125 0 706 504 
Q 288 1009 288 1791 
Q 288 2575 706 3076 
Q 1125 3578 1766 3578 
Q 2131 3578 2409 3434 
Q 2688 3291 2919 2981 
L 2919 3500 
L 4044 3500 
L 4044 353 
Q 4044 -491 3511 -936 
Q 2978 -1381 1966 -1381 
Q 1638 -1381 1331 -1331 
Q 1025 -1281 716 -1178 
L 716 -306 
Q 1009 -475 1290 -558 
Q 1572 -641 1856 -641 
Q 2406 -641 2662 -400 
Q 2919 -159 2919 353 
L 2919 594 
z
M 2181 2772 
Q 1834 2772 1640 2515 
Q 1447 2259 1447 1791 
Q 1447 1309 1634 1061 
Q 1822 813 2181 813 
Q 2531 813 2725 1069 
Q 2919 1325 2919 1791 
Q 2919 2259 2725 2515 
Q 2531 2772 2181 2772 
z
" transform="scale(0.015625)"/>
      <path id="DejaVuSans-Bold-5a" d="M 225 3500 
L 1313 3500 
L 1900 1088 
L 2491 3500 
L 3425 3500 
L 4013 1113 
L 4603 3500 
L 5691 3500 
L 4769 0 
L 3547 0 
L 2956 2406 
L 2369 0 
L 1147 0 
L 225 3500 
z
" transform="scale(0.015625)"/>
     </defs>
     <use xlink:href="#DejaVuSans-Bold-37"/>
     <use xlink:href="#DejaVuSans-Bold-55" transform="translate(57.234375 0)"/>
     <use xlink:href="#DejaVuSans-Bold-44" transform="translate(106.546875 0)"/>
     <use xlink:href="#DejaVuSans-Bold-51" transform="translate(174.03125 0)"/>
     <use xlink:href="#DejaVuSans-Bold-56" transform="translate(245.21875 0)"/>
     <use xlink:href="#DejaVuSans-Bold-44" transform="translate(304.734375 0)"/>
     <use xlink:href="#DejaVuSans-Bold-46" transform="translate(372.21875 0)"/>
     <use xlink:href="#DejaVuSans-Bold-57" transform="translate(431.5 0)"/>
     <use xlink:href="#DejaVuSans-Bold-4c" transform="translate(479.296875 0)"/>
     <use xlink:href="#DejaVuSans-Bold-52" transform="translate(513.578125 0)"/>
     <use xlink:href="#DejaVuSans-Bold-51" transform="translate(582.28125 0)"/>
     <use xlink:href="#DejaVuSans-Bold-3" transform="translate(653.46875 0)"/>
     <use xlink:href="#DejaVuSans-Bold-30" transform="translate(688.28125 0)"/>
     <use xlink:href="#DejaVuSans-Bold-2f" transform="translate(787.796875 0)"/>
     <use xlink:href="#DejaVuSans-Bold-30" transform="translate(851.515625 0)"/>
     <use xlink:href="#DejaVuSans-Bold-3" transform="translate(951.03125 0)"/>
     <use xlink:href="#DejaVuSans-Bold-af6" transform="translate(985.84375 0)"/>
     <use xlink:href="#DejaVuSans-Bold-3" transform="translate(1085.84375 0)"/>
     <use xlink:href="#DejaVuSans-Bold-56" transform="translate(1120.65625 0)"/>
     <use xlink:href="#DejaVuSans-Bold-46" transform="translate(1180.171875 0)"/>
     <use xlink:href="#DejaVuSans-Bold-44" transform="translate(1239.453125 0)"/>
     <use xlink:href="#DejaVuSans-Bold-4f" transform="translate(1306.9375 0)"/>
     <use xlink:href="#DejaVuSans-Bold-4c" transform="translate(1341.21875 0)"/>
     <use xlink:href="#DejaVuSans-Bold-51" transform="translate(1375.5 0)"/>
     <use xlink:href="#DejaVuSans-Bold-4a" transform="translate(1446.6875 0)"/>
     <use xlink:href="#DejaVuSans-Bold-3" transform="translate(1518.265625 0)"/>
     <use xlink:href="#DejaVuSans-Bold-4f" transform="translate(1553.078125 0)"/>
     <use xlink:href="#DejaVuSans-Bold-44" transform="translate(1587.359375 0)"/>
     <use xlink:href="#DejaVuSans-Bold-5a" transform="translate(1654.84375 0)"/>
    </g>
   </g>
   <g id="line2d_32">
    <defs>
     <path id="m993058f41e" d="M 0 2.5 
C 0.663008 2.5 1.29895 2.236584 1.767767 1.767767 
C 2.236584 1.29895 2.5 0.663008 2.5 0 
C 2.5 -0.663008 2.236584 -1.29895 1.767767 -1.767767 
C 1.29895 -2.236584 0.663008 -2.5 0 -2.5 
C -0.663008 -2.5 -1.29895 -2.236584 -1.767767 -1.767767 
C -2.236584 -1.29895 -2.5 -0.663008 -2.5 0 
C -2.5 0.663008 -2.236584 1.29895 -1.767767 1.767767 
C -1.29895 2.236584 -0.663008 2.5 0 2.5 
z
" style="stroke: #fcfcfb; stroke-width: 1.2"/>
    </defs>
    <g clip-path="url(#p4fc2dfe521)">
     <use xlink:href="#m993058f41e" x="87.241091" y="55.231528" style="fill: #2a78d6; stroke: #fcfcfb; stroke-width: 1.2"/>
     <use xlink:href="#m993058f41e" x="122.958857" y="53.997775" style="fill: #2a78d6; stroke: #fcfcfb; stroke-width: 1.2"/>
     <use xlink:href="#m993058f41e" x="158.676623" y="72.193545" style="fill: #2a78d6; stroke: #fcfcfb; stroke-width: 1.2"/>
     <use xlink:href="#m993058f41e" x="194.394389" y="77.590759" style="fill: #2a78d6; stroke: #fcfcfb; stroke-width: 1.2"/>
     <use xlink:href="#m993058f41e" x="230.112155" y="85.842789" style="fill: #2a78d6; stroke: #fcfcfb; stroke-width: 1.2"/>
     <use xlink:href="#m993058f41e" x="265.829921" y="91.275295" style="fill: #2a78d6; stroke: #fcfcfb; stroke-width: 1.2"/>
     <use xlink:href="#m993058f41e" x="301.547687" y="90.745094" style="fill: #2a78d6; stroke: #fcfcfb; stroke-width: 1.2"/>
     <use xlink:href="#m993058f41e" x="337.265453" y="91.741553" style="fill: #2a78d6; stroke: #fcfcfb; stroke-width: 1.2"/>
     <use xlink:href="#m993058f41e" x="372.983219" y="92.884778" style="fill: #2a78d6; stroke: #fcfcfb; stroke-width: 1.2"/>
     <use xlink:href="#m993058f41e" x="405.282985" y="99.116406" style="fill: #2a78d6; stroke: #fcfcfb; stroke-width: 1.2"/>
    </g>
   </g>
   <g id="line2d_33">
    <defs>
     <path id="md286887f5f" d="M -2.5 2.5 
L 2.5 2.5 
L 2.5 -2.5 
L -2.5 -2.5 
z
" style="stroke: #fcfcfb; stroke-width: 1.2; stroke-linejoin: miter"/>
    </defs>
    <g clip-path="url(#p4fc2dfe521)">
     <use xlink:href="#md286887f5f" x="87.241091" y="152.086671" style="fill: #eb6834; stroke: #fcfcfb; stroke-width: 1.2; stroke-linejoin: miter"/>
     <use xlink:href="#md286887f5f" x="122.958857" y="151.81198" style="fill: #eb6834; stroke: #fcfcfb; stroke-width: 1.2; stroke-linejoin: miter"/>
     <use xlink:href="#md286887f5f" x="158.676623" y="157.103356" style="fill: #eb6834; stroke: #fcfcfb; stroke-width: 1.2; stroke-linejoin: miter"/>
     <use xlink:href="#md286887f5f" x="194.394389" y="164.30383" style="fill: #eb6834; stroke: #fcfcfb; stroke-width: 1.2; stroke-linejoin: miter"/>
     <use xlink:href="#md286887f5f" x="230.112155" y="179.609734" style="fill: #eb6834; stroke: #fcfcfb; stroke-width: 1.2; stroke-linejoin: miter"/>
     <use xlink:href="#md286887f5f" x="265.829921" y="212.973037" style="fill: #eb6834; stroke: #fcfcfb; stroke-width: 1.2; stroke-linejoin: miter"/>
     <use xlink:href="#md286887f5f" x="301.547687" y="227.959939" style="fill: #eb6834; stroke: #fcfcfb; stroke-width: 1.2; stroke-linejoin: miter"/>
     <use xlink:href="#md286887f5f" x="337.265453" y="234.445386" style="fill: #eb6834; stroke: #fcfcfb; stroke-width: 1.2; stroke-linejoin: miter"/>
     <use xlink:href="#md286887f5f" x="372.983219" y="241.521519" style="fill: #eb6834; stroke: #fcfcfb; stroke-width: 1.2; stroke-linejoin: miter"/>
     <use xlink:href="#md286887f5f" x="408.700985" y="251.370809" style="fill: #eb6834; stroke: #fcfcfb; stroke-width: 1.2; stroke-linejoin: miter"/>
     <use xlink:href="#md286887f5f" x="444.418751" y="257.623551" style="fill: #eb6834; stroke: #fcfcfb; stroke-width: 1.2; stroke-linejoin: miter"/>
     <use xlink:href="#md286887f5f" x="462.622909" y="262.663388" style="fill: #eb6834; stroke: #fcfcfb; stroke-width: 1.2; stroke-linejoin: miter"/>
    </g>
   </g>
   <g id="legend_1">
    <g id="line2d_34">
     <g>
      <use xlink:href="#m993058f41e" x="339.08075" y="36.037031" style="fill: #2a78d6; stroke: #fcfcfb; stroke-width: 1.2"/>
     </g>
    </g>
    <g id="text_18">
     <!-- MBD (full)  b=0.04 -->
     <g style="fill: #52514e" transform="translate(353.48075 38.837031) scale(0.08 -0.08)">
      <defs>
       <path id="DejaVuSans-30" d="M 628 4666 
L 1569 4666 
L 2759 1491 
L 3956 4666 
L 4897 4666 
L 4897 0 
L 4281 0 
L 4281 4097 
L 3078 897 
L 2444 897 
L 1241 4097 
L 1241 0 
L 628 0 
L 628 4666 
z
" transform="scale(0.015625)"/>
       <path id="DejaVuSans-25" d="M 1259 2228 
L 1259 519 
L 2272 519 
Q 2781 519 3026 730 
Q 3272 941 3272 1375 
Q 3272 1813 3026 2020 
Q 2781 2228 2272 2228 
L 1259 2228 
z
M 1259 4147 
L 1259 2741 
L 2194 2741 
Q 2656 2741 2882 2914 
Q 3109 3088 3109 3444 
Q 3109 3797 2882 3972 
Q 2656 4147 2194 4147 
L 1259 4147 
z
M 628 4666 
L 2241 4666 
Q 2963 4666 3353 4366 
Q 3744 4066 3744 3513 
Q 3744 3084 3544 2831 
Q 3344 2578 2956 2516 
Q 3422 2416 3680 2098 
Q 3938 1781 3938 1306 
Q 3938 681 3513 340 
Q 3088 0 2303 0 
L 628 0 
L 628 4666 
z
" transform="scale(0.015625)"/>
       <path id="DejaVuSans-27" d="M 1259 4147 
L 1259 519 
L 2022 519 
Q 2988 519 3436 956 
Q 3884 1394 3884 2338 
Q 3884 3275 3436 3711 
Q 2988 4147 2022 4147 
L 1259 4147 
z
M 628 4666 
L 1925 4666 
Q 3281 4666 3915 4102 
Q 4550 3538 4550 2338 
Q 4550 1131 3912 565 
Q 3275 0 1925 0 
L 628 0 
L 628 4666 
z
" transform="scale(0.015625)"/>
       <path id="DejaVuSans-49" d="M 2375 4863 
L 2375 4384 
L 1825 4384 
Q 1516 4384 1395 4259 
Q 1275 4134 1275 3809 
L 1275 3500 
L 2222 3500 
L 2222 3053 
L 1275 3053 
L 1275 0 
L 697 0 
L 697 3053 
L 147 3053 
L 147 3500 
L 697 3500 
L 697 3744 
Q 697 4328 969 4595 
Q 1241 4863 1831 4863 
L 2375 4863 
z
" transform="scale(0.015625)"/>
       <path id="DejaVuSans-20" d="M 678 2906 
L 4684 2906 
L 4684 2381 
L 678 2381 
L 678 2906 
z
M 678 1631 
L 4684 1631 
L 4684 1100 
L 678 1100 
L 678 1631 
z
" transform="scale(0.015625)"/>
       <path id="DejaVuSans-11" d="M 684 794 
L 1344 794 
L 1344 0 
L 684 0 
L 684 794 
z
" transform="scale(0.015625)"/>
      </defs>
      <use xlink:href="#DejaVuSans-30"/>
      <use xlink:href="#DejaVuSans-25" transform="translate(86.28125 0)"/>
      <use xlink:href="#DejaVuSans-27" transform="translate(154.890625 0)"/>
      <use xlink:href="#DejaVuSans-3" transform="translate(231.890625 0)"/>
      <use xlink:href="#DejaVuSans-b" transform="translate(263.671875 0)"/>
      <use xlink:href="#DejaVuSans-49" transform="translate(302.6875 0)"/>
      <use xlink:href="#DejaVuSans-58" transform="translate(337.890625 0)"/>
      <use xlink:href="#DejaVuSans-4f" transform="translate(401.265625 0)"/>
      <use xlink:href="#DejaVuSans-4f" transform="translate(429.046875 0)"/>
      <use xlink:href="#DejaVuSans-c" transform="translate(456.828125 0)"/>
      <use xlink:href="#DejaVuSans-3" transform="translate(495.84375 0)"/>
      <use xlink:href="#DejaVuSans-3" transform="translate(527.625 0)"/>
      <use xlink:href="#DejaVuSans-45" transform="translate(559.40625 0)"/>
      <use xlink:href="#DejaVuSans-20" transform="translate(622.890625 0)"/>
      <use xlink:href="#DejaVuSans-13" transform="translate(706.6875 0)"/>
      <use xlink:href="#DejaVuSans-11" transform="translate(770.3125 0)"/>
      <use xlink:href="#DejaVuSans-13" transform="translate(802.09375 0)"/>
      <use xlink:href="#DejaVuSans-17" transform="translate(865.71875 0)"/>
     </g>
    </g>
    <g id="line2d_35">
     <g>
      <use xlink:href="#md286887f5f" x="339.08075" y="48.037656" style="fill: #eb6834; stroke: #fcfcfb; stroke-width: 1.2; stroke-linejoin: miter"/>
     </g>
    </g>
    <g id="text_19">
     <!-- Synthea EHR  b=0.09 -->
     <g style="fill: #52514e" transform="translate(353.48075 50.837656) scale(0.08 -0.08)">
      <defs>
       <path id="DejaVuSans-36" d="M 3425 4513 
L 3425 3897 
Q 3066 4069 2747 4153 
Q 2428 4238 2131 4238 
Q 1616 4238 1336 4038 
Q 1056 3838 1056 3469 
Q 1056 3159 1242 3001 
Q 1428 2844 1947 2747 
L 2328 2669 
Q 3034 2534 3370 2195 
Q 3706 1856 3706 1288 
Q 3706 609 3251 259 
Q 2797 -91 1919 -91 
Q 1588 -91 1214 -16 
Q 841 59 441 206 
L 441 856 
Q 825 641 1194 531 
Q 1563 422 1919 422 
Q 2459 422 2753 634 
Q 3047 847 3047 1241 
Q 3047 1584 2836 1778 
Q 2625 1972 2144 2069 
L 1759 2144 
Q 1053 2284 737 2584 
Q 422 2884 422 3419 
Q 422 4038 858 4394 
Q 1294 4750 2059 4750 
Q 2388 4750 2728 4690 
Q 3069 4631 3425 4513 
z
" transform="scale(0.015625)"/>
       <path id="DejaVuSans-5c" d="M 2059 -325 
Q 1816 -950 1584 -1140 
Q 1353 -1331 966 -1331 
L 506 -1331 
L 506 -850 
L 844 -850 
Q 1081 -850 1212 -737 
Q 1344 -625 1503 -206 
L 1606 56 
L 191 3500 
L 800 3500 
L 1894 763 
L 2988 3500 
L 3597 3500 
L 2059 -325 
z
" transform="scale(0.015625)"/>
       <path id="DejaVuSans-4b" d="M 3513 2113 
L 3513 0 
L 2938 0 
L 2938 2094 
Q 2938 2591 2744 2837 
Q 2550 3084 2163 3084 
Q 1697 3084 1428 2787 
Q 1159 2491 1159 1978 
L 1159 0 
L 581 0 
L 581 4863 
L 1159 4863 
L 1159 2956 
Q 1366 3272 1645 3428 
Q 1925 3584 2291 3584 
Q 2894 3584 3203 3211 
Q 3513 2838 3513 2113 
z
" transform="scale(0.015625)"/>
       <path id="DejaVuSans-28" d="M 628 4666 
L 3578 4666 
L 3578 4134 
L 1259 4134 
L 1259 2753 
L 3481 2753 
L 3481 2222 
L 1259 2222 
L 1259 531 
L 3634 531 
L 3634 0 
L 628 0 
L 628 4666 
z
" transform="scale(0.015625)"/>
       <path id="DejaVuSans-2b" d="M 628 4666 
L 1259 4666 
L 1259 2753 
L 3553 2753 
L 3553 4666 
L 4184 4666 
L 4184 0 
L 3553 0 
L 3553 2222 
L 1259 2222 
L 1259 0 
L 628 0 
L 628 4666 
z
" transform="scale(0.015625)"/>
      </defs>
      <use xlink:href="#DejaVuSans-36"/>
      <use xlink:href="#DejaVuSans-5c" transform="translate(63.484375 0)"/>
      <use xlink:href="#DejaVuSans-51" transform="translate(122.671875 0)"/>
      <use xlink:href="#DejaVuSans-57" transform="translate(186.046875 0)"/>
      <use xlink:href="#DejaVuSans-4b" transform="translate(225.25 0)"/>
      <use xlink:href="#DejaVuSans-48" transform="translate(288.625 0)"/>
      <use xlink:href="#DejaVuSans-44" transform="translate(350.15625 0)"/>
      <use xlink:href="#DejaVuSans-3" transform="translate(411.4375 0)"/>
      <use xlink:href="#DejaVuSans-28" transform="translate(443.21875 0)"/>
      <use xlink:href="#DejaVuSans-2b" transform="translate(506.40625 0)"/>
      <use xlink:href="#DejaVuSans-35" transform="translate(581.609375 0)"/>
      <use xlink:href="#DejaVuSans-3" transform="translate(651.09375 0)"/>
      <use xlink:href="#DejaVuSans-3" transform="translate(682.875 0)"/>
      <use xlink:href="#DejaVuSans-45" transform="translate(714.65625 0)"/>
      <use xlink:href="#DejaVuSans-20" transform="translate(778.140625 0)"/>
      <use xlink:href="#DejaVuSans-13" transform="translate(861.9375 0)"/>
      <use xlink:href="#DejaVuSans-11" transform="translate(925.5625 0)"/>
      <use xlink:href="#DejaVuSans-13" transform="translate(957.34375 0)"/>
      <use xlink:href="#DejaVuSans-1c" transform="translate(1020.96875 0)"/>
     </g>
    </g>
    <g id="line2d_36">
     <defs>
      <path id="m9acb0d113b" d="M 0 -2.5 
L -2.5 2.5 
L 2.5 2.5 
z
" style="stroke: #fcfcfb; stroke-width: 1.2; stroke-linejoin: miter"/>
     </defs>
     <g>
      <use xlink:href="#m9acb0d113b" x="339.08075" y="60.038281" style="fill: #1baf7a; stroke: #fcfcfb; stroke-width: 1.2; stroke-linejoin: miter"/>
     </g>
    </g>
    <g id="text_20">
     <!-- Amazon Beauty 2014  b=0.05 -->
     <g style="fill: #52514e" transform="translate(353.48075 62.838281) scale(0.08 -0.08)">
      <defs>
       <path id="DejaVuSans-50" d="M 3328 2828 
Q 3544 3216 3844 3400 
Q 4144 3584 4550 3584 
Q 5097 3584 5394 3201 
Q 5691 2819 5691 2113 
L 5691 0 
L 5113 0 
L 5113 2094 
Q 5113 2597 4934 2840 
Q 4756 3084 4391 3084 
Q 3944 3084 3684 2787 
Q 3425 2491 3425 1978 
L 3425 0 
L 2847 0 
L 2847 2094 
Q 2847 2600 2669 2842 
Q 2491 3084 2119 3084 
Q 1678 3084 1418 2786 
Q 1159 2488 1159 1978 
L 1159 0 
L 581 0 
L 581 3500 
L 1159 3500 
L 1159 2956 
Q 1356 3278 1631 3431 
Q 1906 3584 2284 3584 
Q 2666 3584 2933 3390 
Q 3200 3197 3328 2828 
z
" transform="scale(0.015625)"/>
       <path id="DejaVuSans-5d" d="M 353 3500 
L 3084 3500 
L 3084 2975 
L 922 459 
L 3084 459 
L 3084 0 
L 275 0 
L 275 525 
L 2438 3041 
L 353 3041 
L 353 3500 
z
" transform="scale(0.015625)"/>
      </defs>
      <use xlink:href="#DejaVuSans-24"/>
      <use xlink:href="#DejaVuSans-50" transform="translate(68.40625 0)"/>
      <use xlink:href="#DejaVuSans-44" transform="translate(165.8125 0)"/>
      <use xlink:href="#DejaVuSans-5d" transform="translate(227.09375 0)"/>
      <use xlink:href="#DejaVuSans-52" transform="translate(279.578125 0)"/>
      <use xlink:href="#DejaVuSans-51" transform="translate(340.765625 0)"/>
      <use xlink:href="#DejaVuSans-3" transform="translate(404.140625 0)"/>
      <use xlink:href="#DejaVuSans-25" transform="translate(435.921875 0)"/>
      <use xlink:href="#DejaVuSans-48" transform="translate(504.53125 0)"/>
      <use xlink:href="#DejaVuSans-44" transform="translate(566.0625 0)"/>
      <use xlink:href="#DejaVuSans-58" transform="translate(627.34375 0)"/>
      <use xlink:href="#DejaVuSans-57" transform="translate(690.71875 0)"/>
      <use xlink:href="#DejaVuSans-5c" transform="translate(729.921875 0)"/>
      <use xlink:href="#DejaVuSans-3" transform="translate(789.109375 0)"/>
      <use xlink:href="#DejaVuSans-15" transform="translate(820.890625 0)"/>
      <use xlink:href="#DejaVuSans-13" transform="translate(884.515625 0)"/>
      <use xlink:href="#DejaVuSans-14" transform="translate(948.140625 0)"/>
      <use xlink:href="#DejaVuSans-17" transform="translate(1011.765625 0)"/>
      <use xlink:href="#DejaVuSans-3" transform="translate(1075.390625 0)"/>
      <use xlink:href="#DejaVuSans-3" transform="translate(1107.171875 0)"/>
      <use xlink:href="#DejaVuSans-45" transform="translate(1138.953125 0)"/>
      <use xlink:href="#DejaVuSans-20" transform="translate(1202.4375 0)"/>
      <use xlink:href="#DejaVuSans-13" transform="translate(1286.234375 0)"/>
      <use xlink:href="#DejaVuSans-11" transform="translate(1349.859375 0)"/>
      <use xlink:href="#DejaVuSans-13" transform="translate(1381.640625 0)"/>
      <use xlink:href="#DejaVuSans-18" transform="translate(1445.265625 0)"/>
     </g>
    </g>
   </g>
   <g id="line2d_37">
    <g clip-path="url(#p4fc2dfe521)">
     <use xlink:href="#m9acb0d113b" x="87.241091" y="37.150281" style="fill: #1baf7a; stroke: #fcfcfb; stroke-width: 1.2; stroke-linejoin: miter"/>
     <use xlink:href="#m9acb0d113b" x="122.958857" y="45.298714" style="fill: #1baf7a; stroke: #fcfcfb; stroke-width: 1.2; stroke-linejoin: miter"/>
     <use xlink:href="#m9acb0d113b" x="158.676623" y="51.46466" style="fill: #1baf7a; stroke: #fcfcfb; stroke-width: 1.2; stroke-linejoin: miter"/>
     <use xlink:href="#m9acb0d113b" x="194.394389" y="58.461137" style="fill: #1baf7a; stroke: #fcfcfb; stroke-width: 1.2; stroke-linejoin: miter"/>
     <use xlink:href="#m9acb0d113b" x="230.112155" y="71.255982" style="fill: #1baf7a; stroke: #fcfcfb; stroke-width: 1.2; stroke-linejoin: miter"/>
     <use xlink:href="#m9acb0d113b" x="265.829921" y="74.80926" style="fill: #1baf7a; stroke: #fcfcfb; stroke-width: 1.2; stroke-linejoin: miter"/>
     <use xlink:href="#m9acb0d113b" x="301.547687" y="80.865582" style="fill: #1baf7a; stroke: #fcfcfb; stroke-width: 1.2; stroke-linejoin: miter"/>
     <use xlink:href="#m9acb0d113b" x="337.265453" y="84.99445" style="fill: #1baf7a; stroke: #fcfcfb; stroke-width: 1.2; stroke-linejoin: miter"/>
     <use xlink:href="#m9acb0d113b" x="372.983219" y="87.651566" style="fill: #1baf7a; stroke: #fcfcfb; stroke-width: 1.2; stroke-linejoin: miter"/>
     <use xlink:href="#m9acb0d113b" x="410.6377" y="90.368051" style="fill: #1baf7a; stroke: #fcfcfb; stroke-width: 1.2; stroke-linejoin: miter"/>
    </g>
   </g>
  </g>
  <g id="text_21">
   <!-- Dashed = fitted E(N) = a·N^-b.  * marks R² &lt; 0.70. -->
   <g style="fill: #8a8983" transform="translate(7.2 315.358281) scale(0.08 -0.08)">
    <defs>
     <path id="DejaVuSans-13af" d="M 3431 3500 
L 3431 0 
L 2853 0 
L 2853 3053 
L 1275 3053 
L 1275 0 
L 697 0 
L 697 3053 
L 147 3053 
L 147 3500 
L 697 3500 
L 697 3744 
Q 697 4316 967 4589 
Q 1238 4863 1797 4863 
L 2375 4863 
L 2375 4384 
L 1825 4384 
Q 1516 4384 1395 4259 
Q 1275 4134 1275 3809 
L 1275 3500 
L 3431 3500 
z
M 2853 4856 
L 3431 4856 
L 3431 4128 
L 2853 4128 
L 2853 4856 
z
" transform="scale(0.015625)"/>
     <path id="DejaVuSans-31" d="M 628 4666 
L 1478 4666 
L 3547 763 
L 3547 4666 
L 4159 4666 
L 4159 0 
L 3309 0 
L 1241 3903 
L 1241 0 
L 628 0 
L 628 4666 
z
" transform="scale(0.015625)"/>
     <path id="DejaVuSans-79" d="M 684 2619 
L 1344 2619 
L 1344 1825 
L 684 1825 
L 684 2619 
z
" transform="scale(0.015625)"/>
     <path id="DejaVuSans-41" d="M 2988 4666 
L 4684 2925 
L 4056 2925 
L 2681 4159 
L 1306 2925 
L 678 2925 
L 2375 4666 
L 2988 4666 
z
" transform="scale(0.015625)"/>
     <path id="DejaVuSans-d" d="M 3009 3897 
L 1888 3291 
L 3009 2681 
L 2828 2375 
L 1778 3009 
L 1778 1831 
L 1422 1831 
L 1422 3009 
L 372 2375 
L 191 2681 
L 1313 3291 
L 191 3897 
L 372 4206 
L 1422 3572 
L 1422 4750 
L 1778 4750 
L 1778 3572 
L 2828 4206 
L 3009 3897 
z
" transform="scale(0.015625)"/>
     <path id="DejaVuSans-4e" d="M 581 4863 
L 1159 4863 
L 1159 1991 
L 2875 3500 
L 3609 3500 
L 1753 1863 
L 3688 0 
L 2938 0 
L 1159 1709 
L 1159 0 
L 581 0 
L 581 4863 
z
" transform="scale(0.015625)"/>
     <path id="DejaVuSans-74" d="M 838 2444 
L 2163 2444 
L 2163 2088 
L 294 2088 
L 294 2431 
Q 400 2528 597 2703 
Q 1672 3656 1672 3950 
Q 1672 4156 1509 4282 
Q 1347 4409 1081 4409 
Q 919 4409 728 4354 
Q 538 4300 313 4191 
L 313 4575 
Q 553 4663 761 4706 
Q 969 4750 1147 4750 
Q 1600 4750 1872 4544 
Q 2144 4338 2144 4000 
Q 2144 3566 1109 2678 
Q 934 2528 838 2444 
z
" transform="scale(0.015625)"/>
     <path id="DejaVuSans-1f" d="M 4684 3150 
L 1459 2003 
L 4684 863 
L 4684 294 
L 678 1747 
L 678 2266 
L 4684 3719 
L 4684 3150 
z
" transform="scale(0.015625)"/>
    </defs>
    <use xlink:href="#DejaVuSans-27"/>
    <use xlink:href="#DejaVuSans-44" transform="translate(77 0)"/>
    <use xlink:href="#DejaVuSans-56" transform="translate(138.28125 0)"/>
    <use xlink:href="#DejaVuSans-4b" transform="translate(190.375 0)"/>
    <use xlink:href="#DejaVuSans-48" transform="translate(253.75 0)"/>
    <use xlink:href="#DejaVuSans-47" transform="translate(315.28125 0)"/>
    <use xlink:href="#DejaVuSans-3" transform="translate(378.765625 0)"/>
    <use xlink:href="#DejaVuSans-20" transform="translate(410.546875 0)"/>
    <use xlink:href="#DejaVuSans-3" transform="translate(494.34375 0)"/>
    <use xlink:href="#DejaVuSans-13af" transform="translate(526.125 0)"/>
    <use xlink:href="#DejaVuSans-57" transform="translate(589.109375 0)"/>
    <use xlink:href="#DejaVuSans-57" transform="translate(628.3125 0)"/>
    <use xlink:href="#DejaVuSans-48" transform="translate(667.515625 0)"/>
    <use xlink:href="#DejaVuSans-47" transform="translate(729.046875 0)"/>
    <use xlink:href="#DejaVuSans-3" transform="translate(792.53125 0)"/>
    <use xlink:href="#DejaVuSans-28" transform="translate(824.3125 0)"/>
    <use xlink:href="#DejaVuSans-b" transform="translate(887.5 0)"/>
    <use xlink:href="#DejaVuSans-31" transform="translate(926.515625 0)"/>
    <use xlink:href="#DejaVuSans-c" transform="translate(1001.328125 0)"/>
    <use xlink:href="#DejaVuSans-3" transform="translate(1040.34375 0)"/>
    <use xlink:href="#DejaVuSans-20" transform="translate(1072.125 0)"/>
    <use xlink:href="#DejaVuSans-3" transform="translate(1155.921875 0)"/>
    <use xlink:href="#DejaVuSans-44" transform="translate(1187.703125 0)"/>
    <use xlink:href="#DejaVuSans-79" transform="translate(1248.984375 0)"/>
    <use xlink:href="#DejaVuSans-31" transform="translate(1280.765625 0)"/>
    <use xlink:href="#DejaVuSans-41" transform="translate(1355.578125 0)"/>
    <use xlink:href="#DejaVuSans-10" transform="translate(1439.375 0)"/>
    <use xlink:href="#DejaVuSans-45" transform="translate(1475.453125 0)"/>
    <use xlink:href="#DejaVuSans-11" transform="translate(1538.9375 0)"/>
    <use xlink:href="#DejaVuSans-3" transform="translate(1570.71875 0)"/>
    <use xlink:href="#DejaVuSans-3" transform="translate(1602.5 0)"/>
    <use xlink:href="#DejaVuSans-d" transform="translate(1634.28125 0)"/>
    <use xlink:href="#DejaVuSans-3" transform="translate(1684.28125 0)"/>
    <use xlink:href="#DejaVuSans-50" transform="translate(1716.0625 0)"/>
    <use xlink:href="#DejaVuSans-44" transform="translate(1813.46875 0)"/>
    <use xlink:href="#DejaVuSans-55" transform="translate(1874.75 0)"/>
    <use xlink:href="#DejaVuSans-4e" transform="translate(1915.859375 0)"/>
    <use xlink:href="#DejaVuSans-56" transform="translate(1973.765625 0)"/>
    <use xlink:href="#DejaVuSans-3" transform="translate(2025.859375 0)"/>
    <use xlink:href="#DejaVuSans-35" transform="translate(2057.640625 0)"/>
    <use xlink:href="#DejaVuSans-74" transform="translate(2127.125 0)"/>
    <use xlink:href="#DejaVuSans-3" transform="translate(2167.21875 0)"/>
    <use xlink:href="#DejaVuSans-1f" transform="translate(2199 0)"/>
    <use xlink:href="#DejaVuSans-3" transform="translate(2282.796875 0)"/>
    <use xlink:href="#DejaVuSans-13" transform="translate(2314.578125 0)"/>
    <use xlink:href="#DejaVuSans-11" transform="translate(2378.203125 0)"/>
    <use xlink:href="#DejaVuSans-1a" transform="translate(2409.984375 0)"/>
    <use xlink:href="#DejaVuSans-13" transform="translate(2473.609375 0)"/>
    <use xlink:href="#DejaVuSans-11" transform="translate(2537.234375 0)"/>
   </g>
  </g>
 </g>
 <defs>
  <clipPath id="p4fc2dfe521">
   <rect x="68.472" y="25.558281" width="412.92" height="255.024"/>
  </clipPath>
 </defs>
</svg>
